<svg width="24" height="24" viewBox="0 0 24 24" fill="none" xmlns="http://www.w3.org/2000/svg">
    <path d="M23.9999 11.9999C23.9999 18.6274 18.6274 24 12 24C5.37255 24 0 18.6274 0 11.9999C0 5.37255 5.37255 0 12 0C18.6273 0 23.9999 5.37255 23.9999 11.9999Z" fill="#EDEFF0" />
    <path d="M8.38754 12.339C8.35341 12.9321 8.80992 13.4398 9.40296 13.4739C9.42429 13.4739 9.44562 13.4739 9.46695 13.4739C10.0643 13.4739 10.5464 12.9918 10.5421 12.3945C10.5421 11.7972 10.06 11.3151 9.46269 11.3194C8.89098 11.3194 8.4174 11.7673 8.38754 12.339Z" fill="#0033AD" />
    <path d="M4.36727 12.0618C4.17528 12.049 4.00889 12.1983 4.00036 12.3903C3.99182 12.5823 4.13688 12.7487 4.32888 12.7572C4.52087 12.77 4.68299 12.6207 4.69579 12.4287C4.70859 12.2367 4.55926 12.0746 4.36727 12.0618Z" fill="#0033AD" />
    <path d="M8.31757 6.08432C8.48823 5.99899 8.55649 5.78567 8.47116 5.61501C8.38583 5.44435 8.17251 5.37609 8.00185 5.46142C7.83119 5.54675 7.76293 5.7558 7.84826 5.92646C7.93359 6.10139 8.14265 6.17392 8.31757 6.08432C8.31757 6.08432 8.3133 6.08432 8.31757 6.08432Z" fill="#0033AD" />
    <path d="M9.40963 7.99157C9.67415 7.85931 9.78081 7.53506 9.64855 7.27054C9.51629 7.00602 9.19204 6.89936 8.92752 7.03162C8.663 7.16388 8.55634 7.48813 8.6886 7.75265C8.82086 8.01717 9.14511 8.12383 9.40963 7.99157Z" fill="#0033AD" />
    <path d="M5.73181 9.30128C5.9366 9.43354 6.20966 9.37807 6.34618 9.17328C6.47845 8.96849 6.42298 8.69544 6.21819 8.55891C6.0134 8.42665 5.74035 8.48211 5.60382 8.6869C5.46729 8.89169 5.52702 9.16901 5.73181 9.30128Z" fill="#0033AD" />
    <path d="M6.38475 11.8696C6.0861 11.8526 5.83438 12.0787 5.81731 12.3773C5.80025 12.676 6.02637 12.9277 6.32502 12.9448C6.62367 12.9618 6.87539 12.7357 6.89246 12.4371C6.90953 12.1427 6.6834 11.8867 6.38475 11.8696Z" fill="#0033AD" />
    <path d="M5.79326 15.4835C5.57567 15.5944 5.48607 15.8589 5.597 16.0808C5.70793 16.2984 5.97245 16.388 6.19431 16.277C6.4119 16.1661 6.50149 15.9016 6.39056 15.6797C6.27964 15.4621 6.01085 15.3725 5.79326 15.4835Z" fill="#0033AD" />
    <path d="M7.88365 10.7562C8.17804 10.9482 8.57055 10.8671 8.75828 10.5727C8.95027 10.2784 8.86921 9.88584 8.57482 9.69812C8.28043 9.50613 7.88792 9.58719 7.70019 9.88158C7.5082 10.1717 7.58927 10.5642 7.88365 10.7562Z" fill="#0033AD" />
    <path d="M14.5175 7.9488C14.7649 8.11092 15.102 8.04266 15.2641 7.7952C15.4262 7.54775 15.358 7.2107 15.1105 7.04857C14.863 6.88645 14.526 6.95471 14.3639 7.20216C14.1975 7.45389 14.2657 7.78667 14.5175 7.9488Z" fill="#0033AD" />
    <path d="M15.6177 6.05025C15.7798 6.15691 15.9931 6.10998 16.0998 5.94786C16.2064 5.78573 16.1595 5.57241 15.9974 5.46575C15.8352 5.35908 15.6219 5.40602 15.5153 5.56388C15.4129 5.726 15.4598 5.94359 15.6177 6.05025Z" fill="#0033AD" />
    <path d="M14.5986 11.3109C14.0056 11.2767 13.4936 11.7333 13.4637 12.3263C13.4296 12.9193 13.8861 13.4313 14.4791 13.4612C14.5005 13.4612 14.5218 13.4612 14.5389 13.4612C15.1319 13.4612 15.614 12.9791 15.614 12.3818C15.6183 11.8143 15.1703 11.3407 14.5986 11.3109Z" fill="#0033AD" />
    <path d="M9.76413 10.6794C9.94758 11.0421 10.3188 11.2725 10.7283 11.2725C11.3214 11.2725 11.8035 10.7904 11.8035 10.1931C11.8035 10.0267 11.7651 9.86028 11.6883 9.70669C11.4195 9.17338 10.771 8.96006 10.242 9.22885C9.70866 9.5019 9.49534 10.1504 9.76413 10.6794Z" fill="#0033AD" />
    <path d="M18.2074 9.30126C18.425 9.19033 18.5104 8.92154 18.3994 8.70395C18.2885 8.48636 18.0197 8.40103 17.8021 8.51196C17.5845 8.62289 17.4992 8.88741 17.6059 9.105C17.7211 9.32259 17.9856 9.41218 18.2074 9.30126Z" fill="#0033AD" />
    <path d="M15.4777 9.64256C15.1663 9.80042 15.0383 10.1801 15.1961 10.4916C15.354 10.803 15.7337 10.931 16.0452 10.7732C16.3566 10.6153 16.4846 10.2356 16.3267 9.92415C16.1689 9.6127 15.7892 9.48897 15.4777 9.64256Z" fill="#0033AD" />
    <path d="M11.9573 5.88812C12.2005 5.90092 12.4095 5.71319 12.4266 5.47C12.4437 5.22681 12.2517 5.01776 12.0085 5.00069C11.7653 4.98789 11.5563 5.17135 11.5392 5.41454C11.5264 5.66199 11.7141 5.87105 11.9573 5.88812Z" fill="#0033AD" />
    <path d="M11.9536 8.67409C12.3034 8.69543 12.6021 8.42664 12.6191 8.07679C12.6405 7.72694 12.3717 7.42829 12.0218 7.41122C11.672 7.38989 11.3733 7.65868 11.3563 8.00853C11.3392 8.35838 11.6037 8.65703 11.9536 8.67409Z" fill="#0033AD" />
    <path d="M8.52221 15.1422C8.83366 14.9843 8.96166 14.6046 8.8038 14.2931C8.64594 13.9817 8.26622 13.8537 7.95477 14.0116C7.64332 14.1694 7.51532 14.5491 7.67318 14.8606C7.83104 15.172 8.21076 15.3 8.52221 15.1422Z" fill="#0033AD" />
    <path d="M12.3627 9.60002C12.0384 10.0992 12.175 10.7648 12.6741 11.089C13.1733 11.4133 13.8389 11.2767 14.1631 10.7776C14.4874 10.2784 14.3509 9.61282 13.8517 9.28857C13.6768 9.17338 13.472 9.11365 13.2629 9.11365C12.9003 9.11365 12.5632 9.29711 12.3627 9.60002Z" fill="#0033AD" />
    <path d="M14.2357 14.1053C13.9669 13.5719 13.3184 13.3586 12.7893 13.6274C12.256 13.8962 12.0427 14.5447 12.3115 15.0737C12.5803 15.6071 13.2288 15.8204 13.7578 15.5516C14.2869 15.2871 14.5044 14.6471 14.2399 14.1138C14.2399 14.1095 14.2399 14.1095 14.2357 14.1053Z" fill="#0033AD" />
    <path d="M16.1163 14.0284C15.8219 13.8364 15.4294 13.9175 15.2417 14.2118C15.0497 14.5062 15.1308 14.8987 15.4252 15.0865C15.7195 15.2785 16.1121 15.1974 16.2998 14.903C16.4918 14.6129 16.4107 14.2204 16.1163 14.0284Z" fill="#0033AD" />
    <path d="M18.1815 12.4116C18.1986 12.113 17.9725 11.8612 17.6738 11.8442C17.3752 11.8271 17.1234 12.0532 17.1064 12.3519C17.0893 12.6505 17.3154 12.9022 17.6141 12.9193C17.9085 12.9364 18.1644 12.706 18.1815 12.4116Z" fill="#0033AD" />
    <path d="M19.671 12.0276C19.479 12.0148 19.3126 12.1641 19.3041 12.3561C19.2955 12.5481 19.4406 12.7145 19.6326 12.7231C19.8246 12.7359 19.9867 12.5865 19.9995 12.3945C20.008 12.2025 19.863 12.0404 19.671 12.0276Z" fill="#0033AD" />
    <path d="M18.2681 15.4833C18.0633 15.351 17.7902 15.4065 17.6537 15.6113C17.5214 15.8161 17.5769 16.0891 17.7817 16.2257C17.9865 16.3579 18.2595 16.3025 18.3961 16.0977C18.5326 15.8929 18.4729 15.6155 18.2681 15.4833Z" fill="#0033AD" />
    <path d="M8.37944 18.7345C8.21731 18.6278 8.00399 18.6748 7.89733 18.8326C7.79066 18.9947 7.8376 19.2081 7.99545 19.3147C8.15758 19.4214 8.3709 19.3744 8.47756 19.2166C8.58849 19.0587 8.54156 18.8411 8.37944 18.7345Z" fill="#0033AD" />
    <path d="M15.682 18.7002C15.5114 18.7856 15.4431 18.9989 15.5284 19.1696C15.6138 19.3402 15.8271 19.4085 15.9977 19.3232C16.1684 19.2378 16.2367 19.0288 16.1513 18.8581C16.066 18.6832 15.8569 18.6106 15.682 18.7002C15.682 18.7002 15.6863 18.7002 15.682 18.7002Z" fill="#0033AD" />
    <path d="M11.637 15.1848C11.9613 14.6856 11.8248 14.0201 11.3256 13.6915C10.8264 13.3673 10.1609 13.5038 9.83233 14.003C9.50382 14.5022 9.64461 15.1677 10.1438 15.4963C10.3187 15.6114 10.5235 15.6712 10.7326 15.6712C11.0995 15.6754 11.4365 15.492 11.637 15.1848Z" fill="#0033AD" />
    <path d="M9.48252 16.8358C9.23507 16.6737 8.89801 16.7419 8.73589 16.9894C8.57376 17.2368 8.64203 17.5739 8.88948 17.736C9.13694 17.8981 9.47399 17.8299 9.63612 17.5824C9.80251 17.335 9.73424 16.9979 9.48252 16.8358Z" fill="#0033AD" />
    <path d="M11.9962 18.8966C11.7531 18.8838 11.544 19.0715 11.5269 19.3147C11.5099 19.5579 11.7019 19.767 11.945 19.784C12.1882 19.7968 12.3973 19.6134 12.4144 19.3702C12.4272 19.1227 12.2394 18.9137 11.9962 18.8966Z" fill="#0033AD" />
    <path d="M11.9993 16.1106C11.6494 16.0892 11.3508 16.358 11.3337 16.7079C11.3124 17.0577 11.5812 17.3564 11.931 17.3734C12.2809 17.3905 12.5795 17.126 12.5966 16.7761C12.6179 16.4305 12.3491 16.1276 11.9993 16.1106Z" fill="#0033AD" />
    <path d="M14.5896 16.7933C14.3251 16.9298 14.2184 17.254 14.3549 17.5186C14.4915 17.7831 14.8157 17.8897 15.0802 17.7532C15.3448 17.6209 15.4514 17.2967 15.3192 17.0322C15.1826 16.7677 14.8584 16.6567 14.5896 16.7933Z" fill="#0033AD" />
</svg>
