<svg width="24" height="24" viewBox="0 0 24 24" fill="none" xmlns="http://www.w3.org/2000/svg">
    <path d="M23.9999 11.9999C23.9999 18.6274 18.6274 24 12 24C5.37255 24 0 18.6274 0 11.9999C0 5.37255 5.37255 0 12 0C18.6273 0 23.9999 5.37255 23.9999 11.9999Z" fill="#EDEFF0" />
    <path d="M11.912 4L11.8047 4.36461V14.9439L11.912 15.0509L16.8227 12.1482L11.912 4Z" fill="#343434" />
    <path d="M11.9108 4L7 12.1482L11.9108 15.0509V9.91608V4Z" fill="#8C8C8C" />
    <path d="M11.9121 15.9811L11.8516 16.0549V19.8234L11.9121 20L16.8257 13.0799L11.9121 15.9811Z" fill="#3C3C3B" />
    <path d="M11.9108 20V15.9811L7 13.0799L11.9108 20Z" fill="#8C8C8C" />
    <path d="M11.9141 15.0508L16.8247 12.148L11.9141 9.91589V15.0508Z" fill="#141414" />
    <path d="M7 12.148L11.9108 15.0508V9.91589L7 12.148Z" fill="#393939" />
</svg>
