<svg width="24" height="24" viewBox="0 0 24 24" fill="none" xmlns="http://www.w3.org/2000/svg">
    <path d="M23.9999 11.9999C23.9999 18.6274 18.6274 24 12 24C5.37255 24 0 18.6274 0 11.9999C0 5.37255 5.37255 0 12 0C18.6273 0 23.9999 5.37255 23.9999 11.9999Z" fill="black" />
    <path d="M16.8899 15.1138C17.5395 15.9867 18.2095 16.88 18.8794 17.7732C17.5395 19.3568 15.8748 20.3718 13.865 20.7982C11.6318 21.2651 9.52049 20.92 7.47005 19.7831C9.29718 18.4229 11.0837 17.083 12.8905 15.7431C13.2966 16.1288 13.6823 16.5146 14.068 16.88C14.4943 17.286 14.3319 17.3063 14.8801 17.0018C15.6312 16.5755 16.2606 15.9867 16.7478 15.2762C16.7681 15.2356 16.8087 15.195 16.829 15.1544C16.8087 15.1544 16.829 15.1544 16.8899 15.1138ZM8.91145 16.9003C8.40392 17.286 7.93699 17.6311 7.47005 17.9966C7.12493 18.2605 6.77981 18.5041 6.43468 18.768C6.29257 18.8898 6.19107 18.8898 6.02865 18.7477C4.48575 17.3672 3.51128 15.6619 3.14586 13.6318C2.78043 11.5813 3.10525 9.63238 4.07972 7.78496C4.10002 7.74435 4.14063 7.68345 4.16093 7.64285C4.16093 7.62254 4.18123 7.62254 4.22183 7.60224C5.56172 9.36846 6.92192 11.1347 8.26181 12.9009C8.22121 12.9618 8.2009 13.0024 8.1603 13.043C7.75427 13.4693 7.34825 13.8957 6.92192 14.3017C6.80011 14.4235 6.77981 14.525 6.86101 14.6671C7.28734 15.4792 7.87608 16.1491 8.60693 16.6973C8.70844 16.7582 8.78964 16.8191 8.91145 16.9003ZM16.4839 4.29312C15.8342 4.76005 15.1846 5.22698 14.5349 5.67361C13.4184 6.46536 12.3018 7.27742 11.2055 8.06918C11.0634 8.17068 10.9619 8.19098 10.8401 8.04887C10.4747 7.66315 10.0889 7.31802 9.72351 6.9323C9.622 6.83079 9.52049 6.81049 9.37838 6.87139C8.50542 7.31802 7.81518 7.94737 7.24674 8.73912C7.20614 8.77972 7.16553 8.84063 7.12493 8.90153C6.80011 8.4752 6.49559 8.08948 6.19107 7.68345C5.86624 7.25712 5.56172 6.83079 5.2572 6.42476C5.1557 6.28265 5.13539 6.18115 5.2775 6.03904C6.84071 4.31342 8.76934 3.29835 11.0837 3.05473C12.9108 2.85172 14.6567 3.21714 16.2809 4.0901C16.3418 4.1307 16.4027 4.15101 16.4636 4.19161C16.4636 4.25251 16.4636 4.27281 16.4839 4.29312ZM19.793 16.474C19.3667 15.9258 18.9809 15.4183 18.5952 14.9107C17.702 13.7333 16.8087 12.5355 15.8951 11.358C15.7733 11.1956 15.7733 11.0941 15.9154 10.952C16.3012 10.5662 16.6666 10.1805 17.0523 9.79479C17.1538 9.69329 17.1944 9.59178 17.1132 9.44967C16.6666 8.59701 16.0575 7.88646 15.2658 7.31802C15.2049 7.27742 15.144 7.21652 15.0628 7.17591C15.1237 7.11501 15.1846 7.07441 15.2252 7.0338C15.9966 6.44506 16.7681 5.87662 17.5395 5.28788C17.6614 5.18638 17.7629 5.14577 17.905 5.28788C19.8336 7.0338 20.869 9.20605 20.9705 11.8249C21.0111 13.3475 20.666 14.7889 19.9757 16.1491C19.9148 16.2303 19.8539 16.3318 19.793 16.474Z" fill="white" />
</svg>
