<svg width="32" height="32" viewBox="0 0 32 32" fill="none" xmlns="http://www.w3.org/2000/svg">
    <path opacity="0.15" d="M31.9998 15.9999C31.9998 24.8365 24.8365 32 16 32C7.1634 32 0 24.8365 0 15.9999C0 7.1634 7.1634 0 16 0C24.8364 0 31.9998 7.1634 31.9998 15.9999Z" fill="#8247E5" />
    <path d="M20.8007 13.02C20.4596 12.8251 20.0209 12.8251 19.631 13.02L16.9017 14.6284L15.0496 15.6519L12.369 17.2602C12.0279 17.4552 11.5892 17.4552 11.1993 17.2602L9.10359 15.993C8.76242 15.7981 8.51873 15.4082 8.51873 14.9695V12.5326C8.51873 12.1427 8.71368 11.7528 9.10359 11.5091L11.1993 10.2907C11.5405 10.0957 11.9791 10.0957 12.369 10.2907L14.4648 11.5579C14.8059 11.7528 15.0496 12.1427 15.0496 12.5814V14.1897L16.9017 13.1175V11.4604C16.9017 11.0705 16.7067 10.6806 16.3168 10.4369L12.4178 8.14621C12.0766 7.95126 11.638 7.95126 11.2481 8.14621L7.25154 10.4856C6.86164 10.6806 6.66669 11.0705 6.66669 11.4604V16.0418C6.66669 16.4317 6.86164 16.8216 7.25154 17.0653L11.1993 19.356C11.5405 19.5509 11.9791 19.5509 12.369 19.356L15.0496 17.7963L16.9017 16.7241L19.5823 15.1645C19.9234 14.9695 20.3621 14.9695 20.752 15.1645L22.8477 16.3829C23.1889 16.5779 23.4326 16.9678 23.4326 17.4064V19.8433C23.4326 20.2332 23.2376 20.6232 22.8477 20.8668L20.8007 22.0853C20.4596 22.2802 20.0209 22.2802 19.631 22.0853L17.5353 20.8668C17.1941 20.6719 16.9504 20.282 16.9504 19.8433V18.2837L15.0984 19.356V20.9643C15.0984 21.3542 15.2933 21.7441 15.6832 21.9878L19.631 24.2785C19.9722 24.4735 20.4108 24.4735 20.8007 24.2785L24.7485 21.9878C25.0897 21.7929 25.3334 21.403 25.3334 20.9643V16.3342C25.3334 15.9443 25.1384 15.5544 24.7485 15.3107L20.8007 13.02Z" fill="#8247E5" />
</svg>
