<svg width="32" height="32" viewBox="0 0 32 32" fill="none" xmlns="http://www.w3.org/2000/svg">
    <path opacity="0.15" d="M31.9998 15.9999C31.9998 24.8365 24.8365 32 16 32C7.1634 32 0 24.8365 0 15.9999C0 7.1634 7.1634 0 16 0C24.8364 0 31.9998 7.1634 31.9998 15.9999Z" fill="url(#paint0_linear)" />
    <path d="M10.5184 8.98547L25.0191 18.8865L21.4329 24.1878L6.93225 14.2088L10.5184 8.98547Z" fill="url(#paint1_linear)" />
    <path d="M25.019 18.8865C23.7716 20.6796 19.5617 19.9779 15.5857 17.1714C11.5318 14.4427 9.34887 10.7786 10.5183 8.98549C11.7657 7.1924 15.9755 7.89404 19.9515 10.7006C24.0055 13.3513 26.1884 17.0934 25.019 18.8865Z" fill="url(#paint2_linear)" />
    <path d="M21.4329 24.1098C20.1855 25.9029 15.9756 25.2013 11.9996 22.3947C8.02364 19.5881 5.76278 16.0019 7.01015 14.1309C8.25752 12.3378 12.4674 13.0394 16.4434 15.846C20.4194 18.6526 22.6023 22.3167 21.4329 24.1098Z" fill="url(#paint3_linear)" />
    <path d="M25.019 18.8865L21.4328 24.1878C20.1854 25.9809 15.9755 25.2013 11.9995 22.4726C11.2199 21.9269 10.5183 21.3812 9.81665 20.7575C10.3624 20.6796 11.064 20.3677 11.7657 19.5881C13.013 18.2628 13.6367 17.9509 14.1824 18.0289C14.7282 18.0289 15.3519 18.5746 16.3653 19.8999C17.3788 21.2253 18.7821 21.6151 19.6397 20.9134C19.7176 20.8355 19.7956 20.8355 19.8736 20.7575C20.5752 20.2118 20.8091 19.9779 22.1344 17.4832C22.4463 16.8595 23.5377 15.846 25.019 16.3138C25.4088 17.3272 25.4088 18.1848 25.019 18.8865Z" fill="#0E0F23" />
    <path fill-rule="evenodd" clip-rule="evenodd" d="M24.4733 18.5747C23.3819 20.1339 19.5618 19.3543 15.8976 16.7816C12.1555 14.2089 9.97264 10.9345 11.0641 9.37532C12.1555 7.8161 15.9756 8.59571 19.6398 11.1684C23.3039 13.7411 25.4868 17.0155 24.4733 18.5747ZM21.043 16.2359C20.4973 17.0155 18.6263 16.6257 16.7552 15.3783C14.9621 14.1309 13.8707 12.4937 14.4164 11.7141C14.9621 10.9345 16.8332 11.3243 18.7042 12.5717C20.4973 13.8191 21.5888 15.4562 21.043 16.2359Z" fill="white" />
    <path d="M10.2065 10.7786C10.2065 10.7006 10.1285 10.6227 10.0506 10.7006C9.97261 10.7786 9.89465 10.7786 9.89465 10.8565C9.97261 11.0904 10.0506 11.2464 10.0506 11.4023C10.0506 11.4802 10.1285 11.5582 10.2065 11.4802C10.2845 11.4802 10.3624 11.4023 10.2845 11.3243C10.2845 11.1684 10.2845 11.0125 10.2065 10.7786Z" fill="white" />
    <path d="M10.5964 12.0259C10.5964 11.9479 10.5185 11.87 10.4405 11.9479C10.3625 12.0259 10.3625 12.0259 10.3625 12.1039C11.2201 14.0529 13.0132 16.1578 15.352 17.717C15.43 17.795 15.5079 17.717 15.5859 17.717C15.6639 17.6391 15.5859 17.5611 15.5859 17.4831C13.1691 15.9239 11.454 13.897 10.5964 12.0259Z" fill="white" />
    <path d="M20.0296 19.6661C19.9516 19.6661 19.8737 19.6661 19.8737 19.7441C19.8737 19.8221 19.8737 19.9 19.9516 19.9C20.1855 19.978 20.4973 20.0559 20.7312 20.1339C20.8092 20.1339 20.8871 20.1339 20.8871 20.0559C20.8871 19.978 20.8871 19.9 20.8092 19.9C20.5753 19.8221 20.2635 19.7441 20.0296 19.6661Z" fill="white" />
    <path d="M21.4328 19.9779C21.3548 19.9779 21.2769 20.0559 21.2769 20.1338C21.2769 20.2118 21.3548 20.2897 21.4328 20.2897C22.0565 20.3677 22.7581 20.4457 23.3038 20.3677C23.3818 20.3677 23.4598 20.2897 23.4598 20.2118C23.4598 20.1338 23.3818 20.0559 23.3038 20.0559C22.6801 20.1338 22.0565 20.0559 21.4328 19.9779Z" fill="white" />
    <defs>
        <linearGradient id="paint0_linear" x1="9.19179" y1="-13.0684" x2="18.4799" y2="12.2036" gradientUnits="userSpaceOnUse">
            <stop stop-color="#03B8FF" />
            <stop offset="1" stop-color="#FA52A0" />
        </linearGradient>
        <linearGradient id="paint1_linear" x1="13.3595" y1="7.57774" x2="16.2351" y2="17.4524" gradientUnits="userSpaceOnUse">
            <stop stop-color="#03B8FF" />
            <stop offset="1" stop-color="#FA52A0" />
        </linearGradient>
        <linearGradient id="paint2_linear" x1="15.7275" y1="6.88804" x2="18.6032" y2="16.7628" gradientUnits="userSpaceOnUse">
            <stop stop-color="#03B8FF" />
            <stop offset="1" stop-color="#FA52A0" />
        </linearGradient>
        <linearGradient id="paint3_linear" x1="10.9986" y1="8.2652" x2="13.8743" y2="18.1399" gradientUnits="userSpaceOnUse">
            <stop stop-color="#03B8FF" />
            <stop offset="1" stop-color="#FA52A0" />
        </linearGradient>
    </defs>
</svg>
