<svg width="32" height="32" viewBox="0 0 32 32" fill="none" xmlns="http://www.w3.org/2000/svg">
    <path opacity="0.15" d="M31.9998 15.9999C31.9998 24.8365 24.8365 32 16 32C7.1634 32 0 24.8365 0 15.9999C0 7.1634 7.1634 0 16 0C24.8364 0 31.9998 7.1634 31.9998 15.9999Z" fill="#F09242" />
    <path d="M24.41 8.26306L23.6778 8.99525C25.425 10.9059 26.3939 13.4012 26.3939 15.9902C26.3939 18.5792 25.425 21.0745 23.6778 22.9851L24.41 23.7173C26.353 21.6098 27.4318 18.8482 27.4318 15.9816C27.4318 13.1151 26.353 10.3535 24.41 8.24597V8.26306Z" fill="#5A5564" />
    <path d="M9.01289 8.32646C10.9235 6.57931 13.4188 5.61043 16.0078 5.61043C18.5968 5.61043 21.0921 6.57931 23.0028 8.32646L23.735 7.59426C21.6274 5.65125 18.8658 4.57251 15.9993 4.57251C13.1327 4.57251 10.3712 5.65125 8.26361 7.59426L9.01289 8.32646Z" fill="#5A5564" />
    <path d="M8.32695 22.9925C6.58187 21.0823 5.61426 18.5885 5.61426 16.0012C5.61426 13.4139 6.58187 10.9201 8.32695 9.00991L7.59475 8.27771C5.65174 10.3853 4.573 13.1468 4.573 16.0134C4.573 18.8799 5.65174 21.6415 7.59475 23.7491L8.32695 22.9925Z" fill="#5A5564" />
    <path d="M22.9927 23.6685C21.0821 25.4156 18.5868 26.3845 15.9978 26.3845C13.4087 26.3845 10.9135 25.4156 9.00283 23.6685L8.27063 24.4007C10.3782 26.3437 13.1398 27.4224 16.0063 27.4224C18.8728 27.4224 21.6344 26.3437 23.742 24.4007L22.9927 23.6685Z" fill="#5A5564" />
    <path d="M20.6228 13.5568C20.4764 12.0289 19.1584 11.5164 17.4914 11.3602V9.25635H16.2028V11.3211C15.8635 11.3211 15.517 11.3211 15.1728 11.3211V9.25635H13.8939V11.3748H11.28V12.7538C11.28 12.7538 12.2318 12.7367 12.2172 12.7538C12.3888 12.7349 12.5611 12.7834 12.6976 12.889C12.8342 12.9947 12.9245 13.1492 12.9494 13.32V19.1191C12.9457 19.1793 12.93 19.2382 12.9032 19.2923C12.8763 19.3464 12.8389 19.3945 12.7932 19.4339C12.7483 19.474 12.6957 19.5047 12.6387 19.5239C12.5816 19.5432 12.5213 19.5508 12.4612 19.5462C12.4783 19.5608 11.524 19.5462 11.524 19.5462L11.28 21.0862H13.8695V23.2389H15.1582V21.118H16.1881V23.2291H17.4792V21.1009C19.6563 20.9691 21.1744 20.4321 21.3648 18.3942C21.5185 16.7541 20.7473 16.0219 19.5148 15.7265C20.264 15.358 20.7278 14.6746 20.6228 13.5568ZM18.8167 18.1404C18.8167 19.7414 16.0734 19.5584 15.1997 19.5584V16.7174C16.0734 16.7199 18.8167 16.4685 18.8167 18.1404ZM18.2188 14.1377C18.2188 15.6021 15.9294 15.4239 15.2021 15.4239V12.8417C15.9294 12.8417 18.2188 12.6123 18.2188 14.1377Z" fill="#F09242" />
    <path d="M15.9976 29.3333C13.3607 29.3328 10.7832 28.5505 8.5909 27.0852C6.39862 25.6199 4.69003 23.5375 3.68117 21.1013C2.6723 18.665 2.40846 15.9843 2.92301 13.3982C3.43756 10.812 4.70738 8.43643 6.57194 6.57187C8.43649 4.70732 10.812 3.43749 13.3982 2.92295C15.9844 2.4084 18.6651 2.67224 21.1013 3.6811C23.5376 4.68997 25.62 6.39856 27.0853 8.59084C28.5505 10.7831 29.3329 13.3606 29.3334 15.9975C29.3337 17.7489 28.989 19.4832 28.3189 21.1013C27.6488 22.7194 26.6665 24.1896 25.4281 25.428C24.1897 26.6665 22.7195 27.6487 21.1013 28.3188C19.4832 28.9889 17.749 29.3336 15.9976 29.3333ZM15.9976 3.70635C13.5682 3.70828 11.1939 4.43038 9.17486 5.78137C7.15578 7.13236 5.58253 9.0516 4.65396 11.2965C3.7254 13.5414 3.4832 16.0112 3.95797 18.3938C4.43275 20.7763 5.60319 22.9646 7.32135 24.6821C9.03952 26.3996 11.2283 27.5691 13.611 28.043C15.9937 28.5168 18.4634 28.2736 20.708 27.3442C22.9525 26.4147 24.8711 24.8407 26.2213 22.8211C27.5715 20.8015 28.2927 18.4269 28.2936 15.9975C28.2943 14.3828 27.9766 12.7838 27.3589 11.292C26.7411 9.80017 25.8353 8.44473 24.6933 7.30319C23.5514 6.16166 22.1956 5.25643 20.7035 4.63925C19.2114 4.02208 17.6123 3.70507 15.9976 3.70635Z" fill="#282138" />
</svg>
