<svg width="24" height="24" viewBox="0 0 24 24" fill="none" xmlns="http://www.w3.org/2000/svg">
    <path opacity="0.15" d="M12 24C18.6274 24 24 18.6274 24 12C24 5.37258 18.6274 0 12 0C5.37258 0 0 5.37258 0 12C0 18.6274 5.37258 24 12 24Z" fill="#F3BA2F"/>
    <path d="M9.28107 10.8829L12 8.164L14.7202 10.8841L16.3022 9.30209L12 5L7.69919 9.3008L9.28113 10.8828L9.28107 10.8829ZM5 12L6.58205 10.4177L8.16399 11.9997L6.58194 13.5817L5 12ZM9.28107 13.1173L12 15.836L14.7201 13.116L16.3029 14.6971L16.3022 14.698L12 19L7.69919 14.6992L7.69695 14.697L9.28124 13.1171L9.28107 13.1173ZM15.836 12.0007L17.418 10.4186L18.9999 12.0006L17.418 13.5826L15.836 12.0007Z" fill="#F3BA2F"/>
    <path d="M13.6047 11.9991H13.6053L12.0002 10.3938L10.8137 11.58L10.6774 11.7163L10.3963 11.9975L10.394 11.9997L10.3963 12.002L12.0002 13.6061L13.6055 12.0008L13.6062 11.9999L13.6048 11.9991" fill="#F3BA2F"/>
</svg>
