<svg width="32" height="32" viewBox="0 0 32 32" fill="none" xmlns="http://www.w3.org/2000/svg">
    <path opacity="0.15" d="M16 32C24.8366 32 32 24.8366 32 16C32 7.16344 24.8366 0 16 0C7.16344 0 0 7.16344 0 16C0 24.8366 7.16344 32 16 32Z" fill="#FF007A" />
    <path d="M13.021 9.57883C12.8188 9.54995 12.8092 9.54032 12.9054 9.5307C13.0883 9.50182 13.5119 9.54033 13.8104 9.60771C14.5035 9.77137 15.1293 10.195 15.7935 10.9362L15.9668 11.1384L16.2171 11.0999C17.2857 10.9266 18.3832 11.0614 19.2977 11.485C19.548 11.6005 19.9427 11.8315 19.9909 11.8893C20.0101 11.9086 20.039 12.0337 20.0583 12.1589C20.1256 12.6113 20.0968 12.9483 19.9524 13.2082C19.8753 13.3526 19.8753 13.3911 19.9235 13.5163C19.962 13.6125 20.0775 13.6799 20.1834 13.6799C20.4145 13.6799 20.6551 13.3141 20.7706 12.8039L20.8188 12.6017L20.9054 12.698C21.3964 13.2467 21.7815 14.0072 21.8392 14.5463L21.8585 14.6907L21.7719 14.5656C21.6274 14.3442 21.4927 14.1998 21.3098 14.0746C20.9824 13.8532 20.6359 13.7858 19.7213 13.7377C18.8934 13.6895 18.4217 13.6222 17.9596 13.4681C17.1702 13.2082 16.7658 12.8713 15.832 11.6294C15.4181 11.0806 15.1581 10.7822 14.8982 10.5319C14.3302 9.98316 13.7622 9.69436 13.021 9.57883Z" fill="#FF007A" />
    <path d="M20.193 10.8015C20.2122 10.4357 20.2604 10.195 20.3663 9.97359C20.4048 9.88695 20.4433 9.80994 20.4529 9.80994C20.4625 9.80994 20.4433 9.87733 20.4144 9.95434C20.3374 10.1661 20.3277 10.4646 20.3759 10.8015C20.4433 11.2347 20.4722 11.2925 20.9342 11.7642C21.146 11.9856 21.3963 12.2648 21.4926 12.3803L21.6563 12.5921L21.4926 12.4381C21.2904 12.2456 20.8284 11.8797 20.7225 11.8316C20.6551 11.7931 20.6454 11.7931 20.5973 11.8412C20.5588 11.8797 20.5492 11.9375 20.5492 12.2167C20.5395 12.6499 20.4818 12.9194 20.3374 13.1986C20.2604 13.343 20.2507 13.3142 20.3181 13.1505C20.3663 13.0253 20.3759 12.9676 20.3759 12.5536C20.3759 11.7161 20.2796 11.5139 19.6924 11.177C19.548 11.0903 19.2977 10.9652 19.1533 10.8978C18.9992 10.8304 18.8837 10.7726 18.8933 10.7726C18.9126 10.7534 19.4806 10.917 19.702 11.0133C20.0389 11.1481 20.0967 11.1577 20.1352 11.1481C20.1641 11.1192 20.1833 11.0422 20.193 10.8015Z" fill="#FF007A" />
    <path d="M13.4155 12.2358C13.0112 11.6775 12.7513 10.811 12.809 10.166L12.8283 9.96387L12.9246 9.98312C13.0978 10.012 13.3963 10.1275 13.5407 10.2142C13.9258 10.4452 14.099 10.7629 14.2627 11.5523C14.3108 11.7834 14.3782 12.0529 14.4071 12.1396C14.4552 12.284 14.6382 12.6209 14.7922 12.8327C14.8981 12.9867 14.8307 13.0637 14.59 13.0445C14.2242 13.006 13.7332 12.669 13.4155 12.2358Z" fill="#FF007A" />
    <path d="M19.702 16.4237C17.7958 15.6535 17.1219 14.9892 17.1219 13.8629C17.1219 13.6992 17.1316 13.5645 17.1316 13.5645C17.1412 13.5645 17.2086 13.6222 17.2952 13.6896C17.6803 13.9977 18.1135 14.1324 19.3169 14.3057C20.0197 14.4116 20.424 14.4886 20.7898 14.6138C21.9547 14.9989 22.6767 15.7883 22.85 16.8569C22.8981 17.1649 22.8692 17.7522 22.7922 18.0602C22.7248 18.3009 22.5323 18.7438 22.4842 18.7534C22.4745 18.7534 22.4553 18.7052 22.4553 18.6282C22.436 18.2239 22.2339 17.8388 21.8969 17.5404C21.4926 17.1938 20.9727 16.9339 19.702 16.4237Z" fill="#FF007A" />
    <path d="M18.3542 16.7414C18.3349 16.597 18.2868 16.414 18.2579 16.337L18.2098 16.1926L18.2964 16.2985C18.4216 16.4429 18.5178 16.6162 18.6045 16.8569C18.6719 17.0398 18.6719 17.0976 18.6719 17.396C18.6719 17.6848 18.6623 17.7522 18.6045 17.9159C18.5082 18.1758 18.3927 18.3587 18.2002 18.5609C17.8536 18.9171 17.4011 19.1096 16.7561 19.1962C16.6406 19.2059 16.3133 19.2348 16.0245 19.254C15.3024 19.2925 14.8211 19.3695 14.3879 19.5236C14.3301 19.5428 14.2724 19.5621 14.2627 19.5524C14.2435 19.5332 14.5419 19.3599 14.7826 19.2444C15.1195 19.0807 15.4661 18.9941 16.2266 18.8593C16.6021 18.8015 16.9872 18.7245 17.0834 18.686C18.0365 18.3876 18.5082 17.6463 18.3542 16.7414Z" fill="#FF007A" />
    <path d="M19.2303 18.2912C18.98 17.7425 18.9222 17.2226 19.057 16.7316C19.0763 16.6835 19.0955 16.6354 19.1148 16.6354C19.134 16.6354 19.1918 16.6643 19.2496 16.7028C19.3651 16.7798 19.6058 16.9146 20.2219 17.2515C21.0017 17.6751 21.4445 18.0024 21.7526 18.3779C22.0221 18.7052 22.1858 19.0806 22.2628 19.5427C22.3109 19.8026 22.2821 20.4284 22.2147 20.6883C22.0029 21.5066 21.5215 22.1613 20.8188 22.5367C20.7129 22.5945 20.6262 22.633 20.6166 22.633C20.607 22.633 20.6455 22.5367 20.7032 22.4212C20.9343 21.9302 20.9632 21.4585 20.7899 20.929C20.684 20.6017 20.4626 20.207 20.0197 19.5427C19.4902 18.7726 19.3651 18.5704 19.2303 18.2912Z" fill="#FF007A" />
    <path d="M12.0582 21.2371C12.7706 20.6402 13.6467 20.2166 14.4554 20.0818C14.8019 20.0241 15.3795 20.0433 15.6972 20.13C16.2075 20.2648 16.6696 20.5536 16.9102 20.9098C17.1413 21.2563 17.2472 21.5548 17.3531 22.219C17.3916 22.479 17.4397 22.7485 17.4493 22.8063C17.5264 23.1528 17.6804 23.4224 17.8729 23.5668C18.1714 23.7882 18.6912 23.7978 19.2014 23.6053C19.2881 23.5764 19.3651 23.5475 19.3651 23.5572C19.3844 23.5764 19.1244 23.7497 18.9511 23.8364C18.7105 23.9615 18.5179 24 18.258 24C17.7959 24 17.4012 23.7593 17.0835 23.278C17.0161 23.1817 16.8813 22.9025 16.7658 22.6426C16.4289 21.8628 16.2556 21.6318 15.8609 21.3719C15.5143 21.1504 15.0715 21.1023 14.7345 21.266C14.2917 21.4778 14.1762 22.0457 14.4842 22.3923C14.6094 22.5367 14.8404 22.6522 15.033 22.6811C15.3892 22.7293 15.6972 22.4501 15.6972 22.0939C15.6972 21.8628 15.6106 21.7281 15.3795 21.6222C15.0715 21.4874 14.7345 21.6414 14.7442 21.9398C14.7442 22.065 14.8019 22.142 14.9271 22.1998C15.0041 22.2383 15.0041 22.2383 14.9463 22.2287C14.6671 22.1709 14.5998 21.8243 14.8212 21.6029C15.0907 21.3333 15.6587 21.4489 15.8513 21.8243C15.9283 21.9784 15.9379 22.2864 15.8705 22.479C15.7069 22.9025 15.2448 23.124 14.773 22.9988C14.4554 22.9122 14.3206 22.8255 13.9355 22.4308C13.2616 21.7377 13.0017 21.6029 12.039 21.4585L11.8561 21.4296L12.0582 21.2371Z" fill="#FF007A" />
    <path fill-rule="evenodd" clip-rule="evenodd" d="M6.99443 5.74733C9.23751 8.47176 12.6936 12.7076 12.8669 12.9387C13.0113 13.1312 12.9535 13.3141 12.7128 13.4489C12.5781 13.5259 12.2989 13.6029 12.1641 13.6029C12.0101 13.6029 11.8272 13.5259 11.702 13.4008C11.6154 13.3141 11.2399 12.7654 10.3927 11.4465C9.74774 10.4357 9.199 9.59811 9.18938 9.58849C9.15087 9.56923 9.15087 9.56923 10.3254 11.6679C11.0666 12.9868 11.3073 13.4585 11.3073 13.5163C11.3073 13.6414 11.2688 13.7088 11.1148 13.8821C10.8548 14.1709 10.7393 14.4982 10.6527 15.1817C10.5564 15.9423 10.2965 16.4814 9.5552 17.3959C9.12199 17.9351 9.0546 18.0313 8.9487 18.2527C8.81393 18.5223 8.77542 18.6763 8.75616 19.0229C8.73691 19.3887 8.77542 19.6198 8.88131 19.9663C8.97758 20.2744 9.08348 20.4766 9.34341 20.8713C9.56483 21.2178 9.69961 21.4778 9.69961 21.574C9.69961 21.6511 9.71886 21.6511 10.0654 21.574C10.8933 21.3815 11.5769 21.0542 11.9523 20.6499C12.1834 20.3996 12.2411 20.2648 12.2411 19.9182C12.2411 19.6968 12.2315 19.6487 12.1737 19.5139C12.0775 19.3021 11.8946 19.1288 11.4998 18.8592C10.98 18.503 10.7586 18.2142 10.7008 17.8292C10.6527 17.5018 10.7104 17.2804 10.9992 16.6739C11.2977 16.0482 11.3747 15.7882 11.4228 15.1529C11.4517 14.7485 11.4998 14.5849 11.6154 14.4597C11.7405 14.3249 11.8464 14.2768 12.1449 14.2383C12.6358 14.1709 12.9535 14.0458 13.2038 13.8051C13.4252 13.6029 13.5215 13.4008 13.5311 13.1023L13.5408 12.8809L13.4156 12.7461C12.9631 12.2263 6.696 5.33337 6.66712 5.33337C6.65749 5.33337 6.81152 5.51629 6.99443 5.74733ZM9.94991 19.4369C10.0558 19.2539 9.99804 19.0229 9.82476 18.9074C9.6611 18.8015 9.4108 18.8496 9.4108 18.994C9.4108 19.0325 9.43005 19.071 9.48781 19.0903C9.57446 19.1384 9.58408 19.1866 9.51669 19.2925C9.44931 19.3984 9.44931 19.4946 9.53595 19.562C9.67073 19.6679 9.85364 19.6101 9.94991 19.4369Z" fill="#FF007A" />
    <path fill-rule="evenodd" clip-rule="evenodd" d="M13.8491 14.3732C13.618 14.4406 13.3964 14.691 13.329 14.9414C13.2905 15.0955 13.3098 15.3749 13.3772 15.4616C13.4831 15.5964 13.5795 15.6349 13.8491 15.6349C14.3789 15.6349 14.8316 15.4038 14.8798 15.1244C14.9279 14.8933 14.7256 14.5754 14.4463 14.4309C14.3018 14.3539 14.0033 14.325 13.8491 14.3732ZM14.4656 14.8547C14.5426 14.7392 14.5137 14.614 14.3693 14.5273C14.1092 14.3635 13.7143 14.4984 13.7143 14.7488C13.7143 14.874 13.9166 15.0089 14.1092 15.0089C14.2344 15.0089 14.4078 14.9318 14.4656 14.8547Z" fill="#FF007A" />
</svg>
