<svg width="33" height="33" viewBox="0 0 33 33" fill="none" xmlns="http://www.w3.org/2000/svg">
    <path d="M0.987427 16.0017C0.987427 24.8381 8.15079 32.0015 16.9871 32.0015C25.8235 32.0015 32.9869 24.8381 32.9869 16.0017C32.9869 7.16538 25.8235 0.00226593 16.9871 0.00226593C8.15079 0.00226593 0.987427 7.16538 0.987427 16.0017Z" fill="url(#paint0_radial)" />
    <path d="M16.9788 12.4385C12.2108 12.4385 8.3454 11.677 8.3454 10.7375C8.3454 9.79798 12.2108 9.03626 16.9788 9.03626C21.7466 9.03626 25.612 9.79798 25.612 10.7375C25.612 11.677 21.7466 12.4385 16.9788 12.4385" fill="#010A24" />
    <path d="M16.9788 17.6216C12.2108 17.6216 8.3454 16.8601 8.3454 15.9206C8.3454 14.9811 12.2108 14.2194 16.9788 14.2194C21.7466 14.2194 25.612 14.9811 25.612 15.9206C25.612 16.8601 21.7466 17.6216 16.9788 17.6216" fill="#010A24" />
    <path d="M16.9788 22.9712C12.2108 22.9712 8.3454 22.2097 8.3454 21.2702C8.3454 20.3307 12.2108 19.569 16.9788 19.569C21.7466 19.569 25.612 20.3307 25.612 21.2702C25.612 22.2097 21.7466 22.9712 16.9788 22.9712" fill="#010A24" />
    <defs>
        <radialGradient id="paint0_radial" cx="0" cy="0" r="1" gradientUnits="userSpaceOnUse" gradientTransform="translate(7.70528 2.88742) rotate(55.1245) scale(31.4994)">
            <stop stop-color="#00D5FF" />
            <stop offset="0.088894" stop-color="#00D5FF" />
            <stop offset="0.5" stop-color="#3A4AFF" />
            <stop offset="1" stop-color="#7E20FF" />
        </radialGradient>
    </defs>
</svg>
