<svg width="32" height="32" viewBox="0 0 32 32" fill="none" xmlns="http://www.w3.org/2000/svg">
    <path opacity="0.15" d="M16 32C24.8366 32 32 24.8366 32 16C32 7.16344 24.8366 0 16 0C7.16344 0 0 7.16344 0 16C0 24.8366 7.16344 32 16 32Z" fill="#50AF95" />
    <path fill-rule="evenodd" clip-rule="evenodd" d="M10.085 8.07975L6.68141 15.229C6.66846 15.2556 6.66436 15.2856 6.6697 15.3147C6.67504 15.3438 6.68955 15.3704 6.71111 15.3907L15.9034 24.1991C15.9295 24.2241 15.9643 24.2381 16.0004 24.2381C16.0366 24.2381 16.0714 24.2241 16.0975 24.1991L25.2898 15.3912C25.3113 15.371 25.3259 15.3444 25.3312 15.3153C25.3365 15.2862 25.3324 15.2561 25.3195 15.2295L21.9159 8.0803C21.9049 8.05629 21.8872 8.03595 21.865 8.02171C21.8428 8.00748 21.8169 7.99994 21.7905 8.00001H10.2115C10.185 7.99968 10.1589 8.00703 10.1365 8.02118C10.114 8.03533 10.0961 8.05567 10.085 8.07975Z" fill="#50AF95" />
    <path fill-rule="evenodd" clip-rule="evenodd" d="M17.1809 15.9631C17.1149 15.9681 16.774 15.9884 16.0134 15.9884C15.4085 15.9884 14.979 15.9703 14.8283 15.9631C12.4905 15.8603 10.7455 15.4533 10.7455 14.9661C10.7455 14.4788 12.4905 14.0724 14.8283 13.968V15.5578C14.9811 15.5688 15.4189 15.5947 16.0238 15.5947C16.7498 15.5947 17.1133 15.5644 17.1787 15.5584V13.9691C19.5116 14.073 21.2527 14.4799 21.2527 14.9661C21.2527 15.4522 19.5121 15.8592 17.1787 15.9626L17.1809 15.9631ZM17.1809 13.8046V12.3819H20.4366V10.2124H11.5726V12.3819H14.8277V13.8041C12.1819 13.9256 10.1923 14.4497 10.1923 15.0777C10.1923 15.7058 12.1819 16.2293 14.8277 16.3514V20.9104H17.1804V16.3498C19.8201 16.2282 21.8065 15.7047 21.8065 15.0772C21.8065 14.4497 19.8217 13.9262 17.1804 13.8041L17.1809 13.8046Z" fill="white" />
</svg>
