<svg width="32" height="32" viewBox="0 0 32 32" fill="none" xmlns="http://www.w3.org/2000/svg">
    <path opacity="0.15" d="M31.9998 15.9999C31.9998 24.8365 24.8365 32 16 32C7.1634 32 0 24.8365 0 15.9999C0 7.1634 7.1634 0 16 0C24.8364 0 31.9998 7.1634 31.9998 15.9999Z" fill="#006AE3" />
    <path fill-rule="evenodd" clip-rule="evenodd" d="M16 0C24.8352 0 32 7.1648 32 16C32 24.8352 24.8352 32 16 32C7.1648 32 0 24.8352 0 16C0 7.1648 7.1648 0 16 0Z" fill="#006AE3" />
    <path d="M15.3406 22.7456V9.43359H16.7902V22.7456H15.3406Z" fill="white" />
    <path d="M22.7199 13.8687L18.2431 15.0559L17.2447 10.4095L18.5759 10.1087L19.1007 12.3103C19.1007 12.3103 20.3103 10.3263 18.6975 8.27188C17.7471 7.21588 17.2959 7.17108 16.2303 7.00468C15.2927 6.87028 13.1135 7.18708 12.4639 9.73108C12.1887 11.3695 12.4991 12.5823 14.6111 14.1695L14.4927 15.9359C14.4927 15.9359 12.1343 14.2751 11.5263 13.1103C11.0559 12.1887 10.2495 10.3679 11.7055 7.83348C12.4895 6.56628 14.0351 5.35028 16.7583 5.47828C18.1279 5.53588 21.4719 7.20948 20.9535 11.1199C20.8639 11.8527 20.4831 12.8287 20.4831 12.8287L22.3199 12.4191L22.7199 13.8687Z" fill="white" />
    <path d="M20.1631 24.2848C19.3439 25.5296 17.7663 26.704 15.0495 26.5056C13.6799 26.4128 10.3839 24.6496 11.0047 20.7553C11.1135 20.0257 11.5199 19.0625 11.5199 19.0625L9.67349 19.4209L9.31189 17.9649L13.8207 16.8961L14.6975 21.5681L13.3567 21.8336L12.8895 19.6161C12.8895 19.6161 11.6287 21.5649 13.1839 23.664C14.1055 24.7456 14.5535 24.8 15.6191 24.9952C16.5503 25.1552 18.7391 24.8928 19.4559 22.368C19.7727 20.7393 19.4943 19.5169 17.4271 17.8721L17.5935 16.1089C17.5935 16.1089 19.9071 17.8305 20.4831 19.0113C20.9247 19.9489 21.6831 21.7921 20.1631 24.2848Z" fill="white" />
</svg>
