<svg width="24" height="24" viewBox="0 0 24 24" fill="none" xmlns="http://www.w3.org/2000/svg">
    <path d="M23.9999 11.9999C23.9999 18.6274 18.6274 24 12 24C5.37255 24 0 18.6274 0 11.9999C0 5.37255 5.37255 0 12 0C18.6273 0 23.9999 5.37255 23.9999 11.9999Z" fill="#EDEFF0" />
    <path fill-rule="evenodd" clip-rule="evenodd" d="M6.85 6.5C6.6 5.2 7.6 4 8.9 4C10.05 4 11 4.95 11 6.1V8.7C11.3 8.7 11.6 8.65 11.9 8.65C12.2 8.65 12.45 8.65 12.75 8.7V6.1C12.75 4.95 13.7 4 14.85 4C16.15 4 17.15 5.2 16.95 6.5L16.4 9.55C18.35 10.4 19.85 11.9 19.85 13.75V14.9C19.85 16.45 18.85 17.75 17.4 18.6C15.95 19.5 14.05 20 11.9 20C9.75 20 7.85 19.5 6.4 18.6C5 17.75 4 16.45 4 14.9V13.75C4 11.9 5.45 10.4 7.4 9.55L6.85 6.5ZM15.65 9.95L16.3 6.35C16.45 5.45 15.8 4.6 14.85 4.6C14.05 4.6 13.4 5.25 13.4 6.05V9.35C13.2 9.3 12.95 9.3 12.75 9.3C12.45 9.3 12.2 9.25 11.9 9.25C11.6 9.25 11.3 9.25 11 9.3C10.8 9.3 10.55 9.35 10.35 9.35V6.1C10.35 5.3 9.7 4.65 8.9 4.65C8 4.65 7.3 5.5 7.5 6.4L8.15 10C6.05 10.8 4.65 12.2 4.65 13.8V14.95C4.65 17.4 7.9 19.4 11.9 19.4C15.9 19.4 19.15 17.4 19.15 14.95V13.8C19.2 12.15 17.8 10.75 15.65 9.95Z" fill="#633001" />
    <path d="M19.1987 14.9C19.1987 17.35 15.9487 19.35 11.9487 19.35C7.94873 19.35 4.69873 17.35 4.69873 14.9V13.75H19.2487V14.9H19.1987Z" fill="#FEDC90" />
    <path fill-rule="evenodd" clip-rule="evenodd" d="M7.49873 6.39984C7.29873 5.49984 7.99873 4.64984 8.89873 4.64984C9.69873 4.64984 10.3487 5.29984 10.3487 6.09984V9.39984C10.8487 9.34984 11.3487 9.29984 11.8987 9.29984C12.3987 9.29984 12.8987 9.34984 13.3987 9.39984V6.09984C13.3987 5.29984 14.0487 4.64984 14.8487 4.64984C15.7487 4.64984 16.4487 5.49984 16.2987 6.39984L15.6487 9.99984C17.7487 10.7998 19.1987 12.1998 19.1987 13.7998C19.1987 16.2498 15.9487 18.2498 11.9487 18.2498C7.94873 18.2498 4.69873 16.2498 4.69873 13.7998C4.69873 12.1998 6.09873 10.7998 8.19873 9.99984L7.49873 6.39984Z" fill="#D1884F" />
    <path d="M9.90127 13.45C9.90127 14.1 9.55127 14.65 9.10127 14.65C8.65127 14.65 8.30127 14.1 8.30127 13.45C8.30127 12.8 8.65127 12.25 9.10127 12.25C9.55127 12.25 9.90127 12.8 9.90127 13.45Z" fill="#633001" />
    <path d="M15.4496 13.45C15.4496 14.1 15.0996 14.65 14.6496 14.65C14.1996 14.65 13.8496 14.1 13.8496 13.45C13.8496 12.8 14.1996 12.25 14.6496 12.25C15.0996 12.25 15.4496 12.8 15.4496 13.45Z" fill="#633001" />
</svg>
