<svg width="32" height="32" viewBox="0 0 32 32" fill="none" xmlns="http://www.w3.org/2000/svg">
    <path opacity="0.15" d="M31.9998 15.9999C31.9998 24.8365 24.8365 32 16 32C7.1634 32 0 24.8365 0 15.9999C0 7.1634 7.1634 0 16 0C24.8364 0 31.9998 7.1634 31.9998 15.9999Z" fill="#000D2B" />
    <path d="M16 32C24.8366 32 32 24.8366 32 16C32 7.16344 24.8366 0 16 0C7.16344 0 0 7.16344 0 16C0 24.8366 7.16344 32 16 32Z" fill="#000D2B" />
    <path d="M15.9198 5.88L11.4018 8.52701L15.9198 11.175L20.5228 8.52701L15.9198 5.88ZM16.6628 20.014V25.309L22.7998 21.808V16.512L16.6628 20.014ZM21.2658 10.192V15.488L16.6618 18.136V12.84L21.2658 10.192ZM10.1838 15.488L14.7878 18.136V12.84L10.1838 10.192V15.488ZM10.1838 22.662L14.7878 25.309V20.014L10.1838 17.367V22.661V22.662Z" fill="white" />
</svg>
