<svg width="32" height="32" viewBox="0 0 32 32" fill="none" xmlns="http://www.w3.org/2000/svg">
    <path opacity="0.15" d="M16 32C24.8667 32 32 24.8667 32 16C32 7.13328 24.8667 0 16 0C7.13328 0 0 7.13328 0 16C0 24.8667 7.13328 32 16 32Z" fill="#2775CA" />
    <path d="M19.9006 17.626C19.9006 15.5576 18.6595 14.8484 16.1774 14.553C14.4045 14.3165 14.0499 13.8438 14.0499 13.0163C14.0499 12.1888 14.6409 11.6571 15.8228 11.6571C16.8866 11.6571 17.4776 12.0117 17.7731 12.8982C17.8322 13.0755 18.0095 13.1936 18.1868 13.1936H19.1323C19.3687 13.1936 19.546 13.0163 19.546 12.78V12.7209C19.3096 11.4206 18.2458 10.416 16.8866 10.2979V8.8795C16.8866 8.64306 16.7093 8.46576 16.4139 8.40662H15.5274C15.2909 8.40662 15.1137 8.58391 15.0545 8.8795V10.2387C13.2816 10.4752 12.1588 11.6571 12.1588 13.1346C12.1588 15.0849 13.3407 15.8531 15.8228 16.1486C17.4776 16.4441 18.0095 16.7987 18.0095 17.7443C18.0095 18.6899 17.182 19.34 16.0593 19.34C14.5226 19.34 13.9907 18.6898 13.8135 17.8033C13.7544 17.567 13.5772 17.4487 13.3999 17.4487H12.3951C12.1588 17.4487 11.9815 17.626 11.9815 17.8625V17.9216C12.2178 19.399 13.1634 20.4628 15.1137 20.7583V22.1767C15.1137 22.413 15.2909 22.5903 15.5864 22.6494H16.4729C16.7093 22.6494 16.8866 22.4722 16.9457 22.1767V20.7583C18.7187 20.4628 19.9006 19.2217 19.9006 17.626Z" fill="#2775CA" />
    <path d="M12.9859 23.8312C8.37621 22.1766 6.01221 17.035 7.72617 12.4843C8.61266 10.0021 10.5629 8.11098 12.9859 7.22449C13.2224 7.10634 13.3405 6.92905 13.3405 6.63346V5.80612C13.3405 5.56968 13.2224 5.39238 12.9859 5.33337C12.9268 5.33337 12.8086 5.33337 12.7495 5.39238C7.13514 7.16535 4.06194 13.1344 5.83491 18.7488C6.89869 22.0583 9.44 24.5996 12.7495 25.6634C12.9859 25.7815 13.2224 25.6634 13.2814 25.4269C13.3405 25.3679 13.3405 25.3088 13.3405 25.1906V24.3631C13.3405 24.1858 13.1632 23.9495 12.9859 23.8312ZM19.2505 5.39238C19.014 5.27423 18.7776 5.39238 18.7186 5.62882C18.6594 5.68797 18.6594 5.74697 18.6594 5.86526V6.6926C18.6594 6.92905 18.8367 7.16535 19.014 7.28364C23.6237 8.93832 25.9877 14.0799 24.2738 18.6306C23.3873 21.1128 21.437 23.0039 19.014 23.8904C18.7776 24.0085 18.6594 24.1858 18.6594 24.4814V25.3088C18.6594 25.5452 18.7776 25.7225 19.014 25.7815C19.0732 25.7815 19.1913 25.7815 19.2505 25.7225C24.8648 23.9495 27.938 17.9805 26.165 12.3661C25.1013 8.99746 22.5008 6.45616 19.2505 5.39238Z" fill="#2775CA" />
</svg>
