<svg width="32" height="32" viewBox="0 0 32 32" fill="none" xmlns="http://www.w3.org/2000/svg">
    <path opacity="0.15" d="M31.9998 15.9999C31.9998 24.8365 24.8365 32 16 32C7.1634 32 0 24.8365 0 15.9999C0 7.1634 7.1634 0 16 0C24.8364 0 31.9998 7.1634 31.9998 15.9999Z" fill="#D82122" />
    <path d="M11.1115 16.3463L11.6054 12.6356L7.32166 9.66185L11.2356 10.9876L12.16 9.56942L15.5352 7.4751L22.9749 11.5739L23.3605 17.8279L20.046 22.4338L17.4262 22.8352L18.781 20.3553V17.9678L17.7959 16.1033L16.795 15.4404L15.2553 17.0276V18.7073L14.0536 19.8324L12.5271 20.0173L11.851 20.4002L10.7418 20.0463L10.2796 18.3825L11.1115 17.2125V16.3463Z" fill="white" />
    <path d="M17.9515 9.63002C17.1354 9.461 16.2427 9.50589 16.2427 9.50589C16.2427 9.50589 15.9496 10.8607 14.1326 11.2173C14.1458 11.2173 16.5332 12.0333 17.9515 9.63002Z" fill="#94A6C3" />
    <path d="M18.691 21.924C19.6761 21.1528 20.4156 20.0911 20.7563 18.8895C20.7721 18.8446 20.9095 18.7653 21.0019 18.7046C21.1551 18.6122 21.3109 18.5356 21.3399 18.4114C21.4007 18.0575 21.4324 17.6878 21.4324 17.3181C21.4324 17.1807 21.2924 17.0408 21.1551 16.9034C21.0468 16.811 20.9385 16.7027 20.9385 16.6261C20.7853 15.2237 20.1383 13.9138 19.1057 12.9604L18.9974 13.0687C19.9983 14.0089 20.6454 15.2871 20.7853 16.642C20.8012 16.7661 20.9227 16.8876 21.0468 17.0117C21.1551 17.1041 21.2792 17.2441 21.2792 17.3049C21.2792 17.6587 21.2475 18.0126 21.1868 18.3665C21.1709 18.4273 21.0336 18.4907 20.9253 18.5514C20.7721 18.628 20.6322 18.7046 20.6031 18.8287C20.2334 20.1387 19.3856 21.2796 18.2605 22.019C18.4612 21.5886 19.0924 20.1862 19.4305 19.4758L19.3698 17.1966L17.4128 15.303L16.3036 15.4561L15.086 17.429C15.086 17.429 15.6565 18.1526 14.8536 19.0004C14.0693 19.8323 13.4513 20.0172 13.4513 20.0172L12.8808 19.7082C13.0498 19.4916 13.3905 19.1694 13.652 18.9528C14.0983 18.5831 14.5446 18.5514 14.5446 18.1526C14.5631 17.3181 13.6678 17.5478 13.6678 17.5478L13.343 17.8568L13.2057 18.9977L12.5296 19.8455L12.453 19.8297L11.3438 19.584C11.3438 19.584 12.0225 19.2301 12.1308 18.8287C12.239 18.4431 11.9142 17.1649 11.8984 17.0883C11.9142 17.1041 12.2232 17.3656 12.3605 17.7961C12.6061 17.1173 12.931 16.4703 13.0234 16.4096C13.1159 16.3488 14.3624 15.6859 14.3624 15.6859L13.9478 16.7793L14.2568 16.6103L14.9963 14.7933C14.9963 14.7933 15.7199 14.4394 16.2587 14.4394C17.2279 14.4235 18.662 13.2377 18.0149 11.1117C18.1998 11.1883 21.4033 12.7914 21.9579 15.9342C22.3726 18.3507 21.0019 20.614 18.691 21.924Z" fill="#94A6C3" />
    <path d="M15.0255 9.96806C15.3794 9.55078 15.2421 8.93542 15.2421 8.93542L14.2095 10.4619C14.1936 10.4619 14.5766 10.4778 15.0255 9.96806Z" fill="#1B314F" />
    <path d="M11.5579 18.3031L11.682 17.6877C11.682 17.6877 11.1723 18.5805 11.1274 18.7046C11.0798 18.8446 11.1591 19.0902 11.3571 19.0743C11.5579 19.0585 11.8035 18.7653 11.8035 18.5514C11.8035 18.2741 11.5579 18.3031 11.5579 18.3031Z" fill="#1B314F" />
    <path d="M20.7089 8.50504C20.7089 8.50504 21.4801 8.53673 22.2803 8.62916C20.4765 7.21094 18.7678 6.7963 17.3812 6.7963C15.4718 6.7963 14.1777 7.58332 14.0985 7.62822L14.7006 6.67218C14.7006 6.67218 12.2973 6.43977 11.4495 8.98306C11.233 8.44429 11.0349 7.65727 11.0349 7.65727C11.0349 7.65727 9.78568 8.75329 10.372 10.5703C8.93792 10.0474 6.89114 9.32111 6.8119 9.3079C6.70362 9.29206 6.67193 9.3396 6.67193 9.3396C6.67193 9.3396 6.64024 9.38449 6.73267 9.46372C6.90434 9.59842 10.1396 11.9885 10.85 12.4507C10.6968 13.0053 10.6968 13.2668 10.85 13.5282C11.0666 13.8821 11.0798 14.067 11.0507 14.3285C11.019 14.5899 10.7417 16.8559 10.681 17.1332C10.6202 17.4105 9.9732 18.3956 10.0022 18.6888C10.0339 18.9819 10.4327 20.2285 10.7893 20.3685C11.0507 20.4609 11.6978 20.6616 12.1283 20.6616C12.2814 20.6616 12.4214 20.6299 12.4822 20.5692C12.7436 20.3394 12.8202 20.2919 13.0051 20.2919C13.0209 20.2919 13.0368 20.2919 13.05 20.2919C13.1266 20.2919 13.219 20.3077 13.3273 20.3077C13.5729 20.3077 13.8977 20.2602 14.1275 20.0463C14.4656 19.7082 15.0519 19.246 15.2367 19.0295C15.4691 18.7363 15.5906 18.3375 15.5299 17.9361C15.4823 17.5663 15.6831 17.2415 15.9155 16.9193C16.2086 16.5337 16.7474 15.8418 16.7474 15.8418C17.8117 16.6394 18.4746 17.8569 18.4746 19.2117C18.4746 21.615 16.3803 23.5562 13.7921 23.5562C13.3907 23.5562 13.0077 23.5113 12.6221 23.4188C13.8079 23.8335 14.8089 23.9734 15.6276 23.9734C17.368 23.9734 18.2924 23.3422 18.2924 23.3422C18.2924 23.3422 17.9702 23.7595 17.4446 24.2349C17.4605 24.2349 17.4605 24.2349 17.4605 24.2349C20.3418 23.8335 21.7442 21.4618 21.7442 21.4618C21.7442 21.4618 21.6359 22.233 21.4986 22.7559C25.3307 19.8746 24.6836 16.2696 24.6678 16.1481C24.6995 16.193 25.0851 16.6552 25.2831 16.9035C25.9011 10.5545 20.7089 8.50504 20.7089 8.50504ZM14.8089 18.6439C14.7481 18.7205 14.4867 18.9529 14.3018 19.1219C14.1169 19.2909 13.9162 19.46 13.763 19.6158C13.7023 19.6765 13.5782 19.7082 13.3933 19.7082C13.3326 19.7082 13.2692 19.7082 13.2243 19.7082C13.1926 19.7082 13.1635 19.7082 13.1318 19.7082C13.1002 19.7082 13.0843 19.7082 13.0711 19.7082C13.0236 19.7082 12.9787 19.7082 12.9311 19.7082C13.1635 19.3992 13.8396 18.6914 14.072 18.5382C14.3494 18.3534 14.4893 18.1685 14.3177 17.8463C14.1486 17.5214 13.7023 17.6007 13.7023 17.6007C13.7023 17.6007 13.9638 17.4924 14.1962 17.4924C13.903 17.4158 13.5333 17.4924 13.3643 17.6614C13.1794 17.8304 13.2111 18.4326 13.1345 18.8155C13.0579 19.217 12.7964 19.4177 12.395 19.7874C12.1784 19.9882 12.0253 20.0489 11.9011 20.0489C11.6397 20.004 11.3307 19.9248 11.1141 19.8482C10.9609 19.6475 10.7285 18.9846 10.6678 18.7073C10.7127 18.5541 10.8975 18.2292 10.99 18.0444C11.1749 17.6905 11.2831 17.4898 11.3148 17.3049C11.3756 17.0434 11.5763 15.4245 11.6529 14.7484C11.8536 15.0098 12.1309 15.443 12.0675 15.7203C12.5138 15.0891 12.1916 14.4711 12.0358 14.2255C11.8985 13.9799 11.7136 13.486 11.8668 12.9631C12.02 12.4401 12.5746 10.9902 12.5746 10.9902C12.5746 10.9902 12.7595 11.3151 13.0209 11.2517C13.2824 11.1909 15.3926 8.01645 15.3926 8.01645C15.3926 8.01645 15.963 9.26301 15.3609 10.1742C14.7455 11.0827 14.1434 11.2517 14.1434 11.2517C14.1434 11.2517 14.9911 11.4049 15.7755 10.8344C16.0977 11.5897 16.4067 12.3741 16.4225 12.4824C16.375 12.5907 15.7597 14.0696 15.6989 14.1621C15.6672 14.1938 15.4533 14.2545 15.2975 14.2862C15.036 14.3628 14.8828 14.4103 14.8195 14.4552C14.7112 14.5477 14.2173 15.9025 13.9875 16.5654C13.7102 16.642 13.4329 16.7978 13.2322 17.1042C13.3405 17.0276 13.6785 16.98 13.9268 16.951C14.1434 16.9351 14.8036 17.289 14.9753 17.9519C14.9753 17.9678 14.9753 17.9678 14.9753 17.9836C15.0096 18.2266 14.933 18.459 14.8089 18.6439ZM13.3616 18.8287C13.5016 18.628 13.4857 18.29 13.5016 18.1817C13.5174 18.0734 13.5465 17.8727 13.6706 17.8437C13.7947 17.812 14.0879 17.8595 14.0879 18.0734C14.0879 18.2741 13.8713 18.319 13.7181 18.459C13.6072 18.5646 13.3907 18.7971 13.3616 18.8287ZM19.5072 15.884C19.6604 15.0996 19.6763 14.4209 19.6314 13.8663C20.2309 14.6665 20.6006 15.6384 20.7089 16.6394C20.7248 16.7635 20.8462 16.885 20.9704 17.0091C21.0786 17.1015 21.2028 17.2257 21.2028 17.3022C21.2028 17.6561 21.1711 18.01 21.1103 18.3666C21.0945 18.4115 20.9572 18.4907 20.8489 18.5514C20.6957 18.628 20.5557 18.7046 20.5267 18.8287C20.1886 20.0146 19.4623 21.063 18.4931 21.8025C19.9245 20.3077 20.6165 17.841 19.5072 15.884ZM18.538 21.9399C19.5389 21.1687 20.3101 20.0912 20.6482 18.8736C20.664 18.8287 20.8013 18.7495 20.8938 18.6888C21.047 18.6122 21.2028 18.5198 21.2318 18.3956C21.2926 18.0417 21.3243 17.672 21.3243 17.3022C21.3243 17.1649 21.1843 17.0249 21.047 16.8876C20.9704 16.7952 20.8462 16.6869 20.8462 16.6103C20.7221 15.4852 20.2758 14.4235 19.5838 13.5441C19.2748 11.6954 18.0441 11.1249 18.0124 11.1091C18.0441 11.1566 18.8444 12.3107 18.2897 13.6656C17.7193 15.0363 16.2562 14.8223 16.132 14.8355C16.0079 14.8355 15.5325 15.4509 14.9304 16.5918C14.8538 16.5601 14.5289 16.4835 14.1592 16.5469C14.4365 15.7757 14.8538 14.6824 14.9304 14.5899C14.9621 14.5582 15.1918 14.4975 15.3477 14.4526C15.6408 14.376 15.7781 14.3285 15.8257 14.2677C15.8574 14.2202 16.0105 13.8663 16.1637 13.4965C16.3037 13.4965 16.6576 13.4649 16.6866 13.449C16.7183 13.4173 17.0115 12.6646 17.0115 12.5722C17.0115 12.4956 16.4093 11.0008 16.1796 10.4303C16.2879 10.3062 16.3961 10.153 16.5018 9.984C19.6604 10.3247 22.1271 13.0053 22.1271 16.2538C22.1271 18.7495 20.664 20.9231 18.538 21.9399Z" fill="#1B314F" />
    <path d="M14.4394 13.6206C14.7325 13.2826 14.5794 12.6514 14.038 12.5431C14.1779 12.2209 14.376 11.5739 14.376 11.5739C14.376 11.5739 12.8046 14.0379 12.6673 14.0854C12.5273 14.133 12.39 13.5916 12.39 13.5916C12.0968 14.7166 12.8838 14.8698 12.9763 14.5159C13.4068 14.405 14.1462 13.9428 14.4394 13.6206Z" fill="#1B314F" />
    <path d="M13.0977 14.2202L13.8979 12.8495C13.8979 12.8495 14.36 13.0819 14.1276 13.4516C13.8371 13.8821 13.0977 14.2202 13.0977 14.2202Z" fill="#FFD923" />
    <path d="M23.0041 20.5692C22.7717 20.8782 22.5102 21.2004 22.2039 21.5094C24.1899 17.6879 22.2963 14.1912 22.2197 14.0538C22.3597 14.1938 22.497 14.347 22.6211 14.4843C24.145 16.1772 24.3299 18.7205 23.0041 20.5692Z" fill="#D82122" />
    <path d="M24.8525 15.6542C24.1579 13.7896 23.1728 12.2024 21.0019 10.7709C18.9075 9.3844 16.6574 9.49269 16.5333 9.50853C16.5174 9.50853 16.5016 9.50853 16.5016 9.50853C16.5782 9.47684 16.6548 9.46099 16.7314 9.44779C17.2094 9.29461 17.8247 9.17048 18.4427 9.09389C20.0775 8.85884 21.7255 9.41346 22.8506 10.6019C22.8664 10.6178 22.8664 10.6178 22.8823 10.6336C24.1605 11.9885 24.8234 13.6813 24.8525 15.6542Z" fill="#D82122" />
    <path d="M20.5084 8.02706C18.2134 7.59657 16.7344 7.8105 15.6701 8.21193C15.6384 8.0878 15.5301 7.84219 15.4377 7.64147C15.1181 8.02706 14.7774 8.48924 14.5635 8.78239C13.9772 9.18383 13.7316 9.56942 13.7316 9.56942C14.0696 8.41265 15.0574 7.55168 16.259 7.33511C16.5971 7.27437 16.9668 7.24268 17.3683 7.24268C18.43 7.25852 19.4916 7.51998 20.5084 8.02706Z" fill="#D82122" />
    <path d="M12.0201 10.9849C10.219 10.9241 10.8185 8.82717 10.8502 8.70569C10.8502 8.72153 10.9717 10.3537 12.0201 10.9849Z" fill="#D82122" />
    <path d="M13.7923 7.21094C12.4057 8.04286 12.683 10.0289 12.683 10.0289C11.3572 8.01381 13.684 7.25848 13.7923 7.21094Z" fill="#D82122" />
    <path d="M11.5129 11.5396C11.6054 11.6162 11.6978 11.7562 11.5895 11.9569C11.5288 12.0651 11.4364 12.0493 11.2964 11.9886C11.1115 11.8961 10.0023 11.2491 9.00134 10.5862C10.1423 10.9876 11.2964 11.4181 11.4813 11.5105C11.4813 11.5105 11.4971 11.5264 11.5129 11.5396Z" fill="white" />
</svg>
