<svg width="32" height="32" viewBox="0 0 32 32" fill="none" xmlns="http://www.w3.org/2000/svg">
    <path opacity="0.15" d="M31.9998 15.9999C31.9998 24.8365 24.8365 32 16 32C7.1634 32 0 24.8365 0 15.9999C0 7.1634 7.1634 0 16 0C24.8364 0 31.9998 7.1634 31.9998 15.9999Z" fill="url(#paint0_linear)" />
    <path d="M16 32C24.8366 32 32 24.8366 32 16C32 7.16344 24.8366 0 16 0C7.16344 0 0 7.16344 0 16C0 24.8366 7.16344 32 16 32Z" fill="url(#paint1_linear)" />
    <path d="M10.73 12.0221C10.6021 11.8634 10.408 11.7752 10.2008 11.7752H5.92733C5.89205 11.7752 5.86118 11.7619 5.83472 11.7399C5.81267 11.7178 5.79944 11.6914 5.79944 11.6605V8.78068C5.79944 8.74981 5.81267 8.72335 5.83472 8.7013C5.86118 8.67484 5.89205 8.66161 5.92733 8.66602H10.4433C11.5811 8.66602 12.5646 9.13349 13.3937 10.064L14.4918 11.4047L12.3529 14.0111L10.73 12.0221ZM18.6241 10.0508C19.4488 9.12908 20.4367 8.66602 21.5878 8.66602H26.0905C26.1214 8.66161 26.1522 8.67484 26.1743 8.69248C26.1964 8.71453 26.2052 8.7454 26.2008 8.78068V11.6605C26.2008 11.6914 26.1919 11.7178 26.1743 11.7399C26.1522 11.7663 26.1214 11.7796 26.0905 11.7752H21.8171C21.6142 11.7708 21.4202 11.8634 21.2879 12.0221L18.139 15.8545L21.3011 19.7134C21.429 19.859 21.6186 19.9472 21.8127 19.9428H26.0861C26.117 19.9383 26.1523 19.956 26.1699 19.978C26.1875 20.0045 26.2008 20.0398 26.1964 20.0706V22.9505C26.1964 22.9813 26.1875 23.0078 26.1699 23.0299C26.1478 23.0563 26.117 23.0695 26.0861 23.0651H21.5878C20.4367 23.0651 19.4577 22.5977 18.6374 21.6671L16.0177 18.4698L13.3981 21.6671C12.5734 22.5977 11.5855 23.0651 10.4345 23.0651H5.92733C5.89646 23.0695 5.86118 23.0519 5.84354 23.0299C5.82149 23.0034 5.81267 22.9681 5.81708 22.9372V20.0574C5.81708 20.0265 5.8259 20.0001 5.84354 19.978C5.86559 19.9516 5.89646 19.9383 5.92733 19.9428H10.2008C10.4036 19.9428 10.5977 19.8501 10.73 19.6958L13.8215 15.9207L18.6241 10.0508Z" fill="#00D1FF" />
    <defs>
        <linearGradient id="paint0_linear" x1="16.0021" y1="-9.2613e-05" x2="16.0021" y2="8.46738" gradientUnits="userSpaceOnUse">
            <stop stop-color="#090220" />
            <stop offset="1" stop-color="#170659" />
        </linearGradient>
        <linearGradient id="paint1_linear" x1="16.0022" y1="-9.2613e-05" x2="16.0022" y2="8.46738" gradientUnits="userSpaceOnUse">
            <stop stop-color="#090220" />
            <stop offset="1" stop-color="#170659" />
        </linearGradient>
    </defs>
</svg>
