<svg width="32" height="32" viewBox="0 0 32 32" fill="none" xmlns="http://www.w3.org/2000/svg">
    <path opacity="0.15" d="M31.9998 15.9999C31.9998 24.8365 24.8365 32 16 32C7.1634 32 0 24.8365 0 15.9999C0 7.1634 7.1634 0 16 0C24.8364 0 31.9998 7.1634 31.9998 15.9999Z" fill="url(#paint0_linear)" />
    <path d="M16 32C24.8366 32 32 24.8366 32 16C32 7.16344 24.8366 0 16 0C7.16344 0 0 7.16344 0 16C0 24.8366 7.16344 32 16 32Z" fill="url(#paint1_linear)" />
    <path d="M23.0023 22.3753L17.5919 9.29488C17.2868 8.61859 16.8332 8.2887 16.2352 8.2887H15.7569C15.159 8.2887 14.7053 8.61859 14.4002 9.29488L12.0456 14.9939H10.2641C9.73215 14.998 9.29916 15.4268 9.29504 15.9629V15.9753C9.29916 16.5073 9.73215 16.9402 10.2641 16.9444H11.2208L8.97339 22.3753C8.93215 22.4949 8.90741 22.6186 8.90741 22.7464C8.90741 23.0516 9.00225 23.2908 9.17133 23.4763C9.3404 23.6619 9.5837 23.7526 9.88885 23.7526C10.0909 23.7485 10.2847 23.6866 10.4456 23.567C10.6187 23.4475 10.7383 23.2743 10.8332 23.0763L13.3074 16.9402H15.0229C15.5548 16.9361 15.9878 16.5073 15.9919 15.9712V15.9464C15.9878 15.4145 15.5548 14.9815 15.0229 14.9774H14.1074L15.9961 10.2722L21.1425 23.0722C21.2373 23.2701 21.3569 23.4433 21.5301 23.5629C21.6909 23.6825 21.8889 23.7444 22.0868 23.7485C22.3919 23.7485 22.6311 23.6578 22.8043 23.4722C22.9775 23.2866 23.0682 23.0475 23.0682 22.7423C23.0724 22.6186 23.0517 22.4908 23.0023 22.3753Z" fill="white" />
    <defs>
        <linearGradient id="paint0_linear" x1="27.9292" y1="5.96233" x2="4.12123" y2="25.9942" gradientUnits="userSpaceOnUse">
            <stop stop-color="#B6509E" />
            <stop offset="1" stop-color="#2EBAC6" />
        </linearGradient>
        <linearGradient id="paint1_linear" x1="27.9294" y1="5.96233" x2="4.12137" y2="25.9943" gradientUnits="userSpaceOnUse">
            <stop stop-color="#B6509E" />
            <stop offset="1" stop-color="#2EBAC6" />
        </linearGradient>
    </defs>
</svg>
