<svg width="32" height="32" viewBox="0 0 32 32" fill="none" xmlns="http://www.w3.org/2000/svg">
    <path opacity="0.15" d="M16 32C24.8366 32 32 24.8366 32 16C32 7.16344 24.8366 0 16 0C7.16344 0 0 7.16344 0 16C0 24.8366 7.16344 32 16 32Z" fill="#F5AC37" />
    <path d="M16.8737 17.6427H21.9112C22.0186 17.6427 22.0693 17.6427 22.0771 17.5019C22.1183 16.9894 22.1183 16.4739 22.0771 15.9609C22.0771 15.8612 22.0276 15.8201 21.9196 15.8201H11.8939C11.7698 15.8201 11.7364 15.8612 11.7364 15.9776V17.4523C11.7364 17.6427 11.7364 17.6427 11.9351 17.6427H16.8737ZM21.5145 14.0965C21.5288 14.0589 21.5288 14.0178 21.5145 13.9808C21.4304 13.7976 21.3308 13.6228 21.215 13.4588C21.0408 13.1784 20.8356 12.9201 20.6017 12.688C20.4914 12.5478 20.3637 12.4219 20.2205 12.3151C19.5034 11.7048 18.6509 11.2729 17.7345 11.0557C17.2722 10.9519 16.7997 10.9024 16.326 10.9066H11.8766C11.7525 10.9066 11.7358 10.9561 11.7358 11.0641V14.0053C11.7358 14.1293 11.7358 14.1628 11.8933 14.1628H21.4549C21.4549 14.1628 21.5378 14.146 21.5545 14.0965H21.5139H21.5145ZM21.5145 19.3662C21.3737 19.3507 21.2317 19.3507 21.0909 19.3662H11.9023C11.7782 19.3662 11.7364 19.3662 11.7364 19.532V22.4076C11.7364 22.54 11.7364 22.5735 11.9023 22.5735H16.1446C16.3475 22.589 16.5503 22.5746 16.749 22.5323C17.3646 22.4881 17.9702 22.3545 18.5477 22.1344C18.7577 22.0616 18.9605 21.9667 19.152 21.8528H19.2099C20.2044 21.3355 21.0122 20.523 21.5217 19.5255C21.5217 19.5255 21.5795 19.4002 21.5145 19.3674V19.3662ZM10.0714 24.0643V24.0148V22.0842V21.4298V19.4825C10.0714 19.3745 10.0714 19.3584 9.93891 19.3584H8.14079C8.04116 19.3584 8 19.3584 8 19.226V17.6516H9.92221C10.0296 17.6516 10.0714 17.6516 10.0714 17.5108V15.9531C10.0714 15.8535 10.0714 15.829 9.93891 15.829H8.14079C8.04116 15.829 8 15.829 8 15.6966V14.2385C8 14.1472 8 14.1228 8.13244 14.1228H9.91385C10.0379 14.1228 10.0714 14.1228 10.0714 13.9653V9.49923C10.0714 9.36678 10.0714 9.33337 10.2372 9.33337H16.4513C16.9023 9.35127 17.3503 9.40079 17.7936 9.48252C18.707 9.65136 19.5845 9.97769 20.387 10.4436C20.9191 10.7568 21.4089 11.1351 21.845 11.5706C22.1731 11.9112 22.469 12.2799 22.7315 12.6725C22.9923 13.0704 23.2088 13.4958 23.3788 13.9402C23.3997 14.056 23.5107 14.1341 23.6264 14.1144H25.1095C25.2999 14.1144 25.2999 14.1144 25.3082 14.297V15.656C25.3082 15.7885 25.2587 15.8219 25.1257 15.8219H23.982C23.8663 15.8219 23.8329 15.8219 23.8412 15.971C23.8865 16.4757 23.8865 16.9822 23.8412 17.4869C23.8412 17.6277 23.8412 17.6444 23.9993 17.6444H25.3076C25.3655 17.719 25.3076 17.7936 25.3076 17.8688C25.316 17.9648 25.316 18.0621 25.3076 18.1581V19.161C25.3076 19.3018 25.2665 19.3435 25.1418 19.3435H23.5757C23.4665 19.3226 23.3604 19.3924 23.3353 19.501C22.9624 20.4705 22.3658 21.3397 21.595 22.0365C21.3135 22.2901 21.0176 22.5287 20.7085 22.7488C20.3768 22.9398 20.0541 23.1384 19.714 23.2959C19.0882 23.5775 18.4319 23.7851 17.7584 23.917C17.1188 24.0315 16.4704 24.0834 15.8195 24.0745H10.069V24.0661L10.0714 24.0643Z" fill="#F5AC37" />
</svg>
